<svg xmlns="http://www.w3.org/2000/svg" width="74.23" height="65.616" viewBox="0 0 74.23 65.616">
  <g id="Group_19" data-name="Group 19" transform="translate(-1251.503 -142)">
    <path id="Path_1" data-name="Path 1" d="M468.086,566.039a29.017,29.017,0,0,1-5.667.274,26.029,26.029,0,0,1-12.893-4.055,11.25,11.25,0,0,1-4.2-4.294,7.563,7.563,0,0,1,.93-7.783,7.83,7.83,0,0,1,2.256-1.925c.129-.073.26-.143.393-.21a8.464,8.464,0,0,1,4.68-.857A9.288,9.288,0,0,1,460.3,551.5a16.335,16.335,0,0,1,2.02,7c.05.464.094.93.136,1.392a20.461,20.461,0,0,1-1.092,3.922,1.372,1.372,0,0,0-.061.19q.419.91.8,1.837a1.615,1.615,0,0,0,.773.2h5.2Z" transform="translate(813.5 -358.753)" fill="#5adbff"/>
    <path id="Path_2" data-name="Path 2" d="M485.786,571.566a.284.284,0,0,1-.377-.148c-.022-.053-.043-.106-.066-.159q-.3-.734-.633-1.454a44.282,44.282,0,0,0-12.325-15.95.207.207,0,0,1-.087-.191.284.284,0,0,1,.393-.21.269.269,0,0,1,.059.036,44.388,44.388,0,0,1,6.187,6.144,45.081,45.081,0,0,1,4.88,7.221q.568,1.048,1.079,2.126c.067.143.134.287.2.431q.419.91.8,1.837l.013.031a.207.207,0,0,1-.12.287Z" transform="translate(789.709 -364.161)" fill="#fff"/>
    <circle id="Ellipse_18" data-name="Ellipse 18" cx="5.5" cy="5.5" r="5.5" transform="translate(1251.503 178)" fill="#05a3cf"/>
    <path id="Path_3" data-name="Path 3" d="M420.912,501.641a.566.566,0,0,1-.34-.113l-.006,0-1.281-.981a.569.569,0,1,1,.692-.9l.83.636,1.961-2.558a.569.569,0,0,1,.8-.105l-.012.017.013-.016a.57.57,0,0,1,.105.8l-2.307,3.008A.569.569,0,0,1,420.912,501.641Z" transform="translate(835.502 -316.045)" fill="#fff"/>
    <circle id="Ellipse_23" data-name="Ellipse 23" cx="1.5" cy="1.5" r="1.5" transform="translate(1301.503 167)" fill="#05a3cf"/>
    <path id="Path_17" data-name="Path 17" d="M762.081,403.733a.188.188,0,0,1-.113-.038l0,0-.427-.327a.19.19,0,1,1,.231-.3l.277.212.654-.853a.19.19,0,0,1,.266-.035l0,.006,0-.005a.19.19,0,0,1,.035.266l-.769,1a.19.19,0,0,1-.151.074Z" transform="translate(540.963 -234.201)" fill="#fff"/>
    <ellipse id="Ellipse_24" data-name="Ellipse 24" cx="1.5" cy="2" rx="1.5" ry="2" transform="translate(1301.503 172)" fill="#05a3cf"/>
    <path id="Path_18" data-name="Path 18" d="M762.081,441.733a.188.188,0,0,1-.113-.038l0,0-.427-.327a.19.19,0,1,1,.231-.3l.277.212.654-.853a.19.19,0,0,1,.266-.035l0,.005,0-.005a.19.19,0,0,1,.035.266l-.769,1a.19.19,0,0,1-.151.074Z" transform="translate(540.963 -266.889)" fill="#fff"/>
    <ellipse id="Ellipse_25" data-name="Ellipse 25" cx="2" cy="1.5" rx="2" ry="1.5" transform="translate(1302.503 179)" fill="#05a3cf"/>
    <path id="Path_19" data-name="Path 19" d="M769.081,485.733a.188.188,0,0,1-.113-.038l0,0-.427-.327a.19.19,0,0,1,.231-.3l.277.212.654-.853a.19.19,0,0,1,.266-.035l0,.006,0-.005a.19.19,0,0,1,.035.266l-.769,1A.19.19,0,0,1,769.081,485.733Z" transform="translate(534.942 -304.738)" fill="#fff"/>
    <path id="Path_20" data-name="Path 20" d="M679.005,268.753h-2.291v-.333h2.264a2.784,2.784,0,0,0,2.107-1.164c1.469-1.782,2.675-6.194.08-17.091A66.011,66.011,0,0,1,682,217.682a1.622,1.622,0,0,0-1.561-2.071H646.746a1.629,1.629,0,0,0-1.314.669,12.734,12.734,0,0,0-1.934,5.265l-.327-.059a13.052,13.052,0,0,1,1.992-5.4,1.963,1.963,0,0,1,1.583-.806h33.693a1.955,1.955,0,0,1,1.88,2.5,65.667,65.667,0,0,0-.83,32.313c2.631,11.05,1.366,15.558-.158,17.393A3.152,3.152,0,0,1,679.005,268.753Z" transform="translate(642.721 -73.279)" fill="#5adbff"/>
    <path id="Path_21" data-name="Path 21" d="M635.576,312.183h-2.291v-.333h2.264a2.784,2.784,0,0,0,2.107-1.164c1.469-1.782,2.675-6.194.08-17.091a66.011,66.011,0,0,1,.834-32.483,1.622,1.622,0,0,0-1.561-2.071H603.317a1.629,1.629,0,0,0-1.314.669,12.732,12.732,0,0,0-1.934,5.265l-.327-.059a13.053,13.053,0,0,1,1.992-5.4,1.963,1.963,0,0,1,1.583-.806H637.01a1.955,1.955,0,0,1,1.88,2.5,65.666,65.666,0,0,0-.83,32.313c2.631,11.05,1.366,15.558-.158,17.393A3.152,3.152,0,0,1,635.576,312.183Z" transform="translate(680.079 -110.638)" fill="#5adbff"/>
    <path id="Path_22" data-name="Path 22" d="M591.715,336.949a65.651,65.651,0,0,1,.83-32.313,1.956,1.956,0,0,0-1.88-2.5H556.971a1.961,1.961,0,0,0-1.582.805c-1.36,1.87-4.182,8.073-1.03,25.234,1.686,9.181,1.661,15.441,1.11,19.565a22.006,22.006,0,0,1-1.218,5.074l-.046.117a1.907,1.907,0,0,0-.14.706,1.934,1.934,0,0,0,.633,1.454,1.849,1.849,0,0,0,.443.308,1.876,1.876,0,0,0,.424.155,1.913,1.913,0,0,0,.457.055h33.209a3.153,3.153,0,0,0,2.326-1.272C593.081,352.506,594.346,348,591.715,336.949Zm-.4,17.167a2.785,2.785,0,0,1-2.107,1.164H556.022a1.627,1.627,0,0,1-1.346-.714,1.589,1.589,0,0,1-.225-1.318,1.37,1.37,0,0,1,.061-.19,20.456,20.456,0,0,0,1.092-3.922c.788-4.3.935-10.931-.918-21.017-3.128-17.034-.362-23.143.971-24.979a1.633,1.633,0,0,1,1.314-.668h33.694a1.622,1.622,0,0,1,1.56,2.07,66.01,66.01,0,0,0-.833,32.484C593.986,347.922,592.78,352.334,591.311,354.116Z" transform="translate(720.354 -147.997)" fill="#5adbff"/>
    <path id="Path_23" data-name="Path 23" d="M600.91,399.3h-17.36a1.331,1.331,0,0,1,0-2.661h17.36a1.331,1.331,0,1,1,0,2.661Z" transform="translate(695.151 -229.289)" fill="#5adbff"/>
    <path id="Path_24" data-name="Path 24" d="M600.91,440.3h-17.36a1.331,1.331,0,0,1,0-2.661h17.36a1.331,1.331,0,1,1,0,2.661Z" transform="translate(695.151 -264.558)" fill="#5adbff"/>
    <path id="Path_25" data-name="Path 25" d="M610.91,482.3h-17.36a1.331,1.331,0,0,1,0-2.661h17.36a1.331,1.331,0,1,1,0,2.661Z" transform="translate(686.549 -300.687)" fill="#5adbff"/>
    <path id="Path_26" data-name="Path 26" d="M617.91,526.3h-17.36a1.331,1.331,0,1,1,0-2.661h17.36a1.331,1.331,0,1,1,0,2.661Z" transform="translate(680.528 -338.536)" fill="#5adbff"/>
    <path id="Path_27" data-name="Path 27" d="M648.025,325.393H635.55a1.331,1.331,0,1,1,0-2.661h12.474a1.331,1.331,0,1,1,0,2.661Z" transform="translate(650.421 -165.711)" fill="#05a3cf"/>
    <circle id="Ellipse_26" data-name="Ellipse 26" cx="1.817" cy="1.817" r="1.817" transform="translate(1303.504 184.619)" fill="#5adbff"/>
    <path id="Path_28" data-name="Path 28" d="M623.91,569.3h-17.36a1.331,1.331,0,1,1,0-2.661h17.36a1.331,1.331,0,1,1,0,2.661Z" transform="translate(675.366 -375.525)" fill="#5adbff"/>
    <circle id="Ellipse_27" data-name="Ellipse 27" cx="1.817" cy="1.817" r="1.817" transform="translate(1304.343 190.629)" fill="#5adbff"/>
  </g>
</svg>
