<svg id="Layer_17" data-name="Layer 17" xmlns="http://www.w3.org/2000/svg" width="39.529" height="45.61" viewBox="0 0 39.529 45.61">
  <path id="Path_29" data-name="Path 29" d="M33.886,42.968H9.561A4.561,4.561,0,0,1,5,38.407V9.52a1.52,1.52,0,1,1,3.041,0V38.407a1.52,1.52,0,0,0,1.52,1.52H33.886a1.52,1.52,0,0,0,1.52-1.52V9.52a1.52,1.52,0,0,1,3.041,0V38.407a4.561,4.561,0,0,1-4.561,4.561Z" transform="translate(-1.959 2.642)" fill="#c31e1e"/>
  <path id="Path_30" data-name="Path 30" d="M41.008,8.041H4.52A1.52,1.52,0,1,1,4.52,5H41.008a1.52,1.52,0,1,1,0,3.041Z" transform="translate(-3 1.081)" fill="#c31e1e"/>
  <path id="Path_31" data-name="Path 31" d="M24.683,10.122a1.52,1.52,0,0,1-1.52-1.52V4.041H14.041V8.6A1.52,1.52,0,0,1,11,8.6V2.52A1.52,1.52,0,0,1,12.52,1H24.683A1.52,1.52,0,0,1,26.2,2.52V8.6A1.52,1.52,0,0,1,24.683,10.122Z" transform="translate(1.163 -1)" fill="#c31e1e"/>
  <path id="Path_32" data-name="Path 32" d="M16.52,34.325A1.52,1.52,0,0,1,15,32.805V11.52a1.52,1.52,0,1,1,3.041,0V32.805A1.52,1.52,0,0,1,16.52,34.325Z" transform="translate(3.244 3.683)" fill="#c31e1e"/>
  <path id="Path_33" data-name="Path 33" d="M21.52,30.244A1.52,1.52,0,0,1,20,28.724V13.52a1.52,1.52,0,0,1,3.041,0v15.2A1.52,1.52,0,0,1,21.52,30.244Z" transform="translate(5.846 4.724)" fill="#c31e1e"/>
  <path id="Path_34" data-name="Path 34" d="M11.52,30.244A1.52,1.52,0,0,1,10,28.724V13.52a1.52,1.52,0,0,1,3.041,0v15.2A1.52,1.52,0,0,1,11.52,30.244Z" transform="translate(0.642 4.724)" fill="#c31e1e"/>
</svg>
